<svg xmlns="http://www.w3.org/2000/svg" width="18" height="18" viewBox="0 0 18 18">
  <defs>
    <clipPath id="c">
      <circle cx="9" cy="9" r="9"/>
    </clipPath>
  </defs>
  <g clip-path="url(#c)">
    <rect width="18" height="18" fill="#fff"/>
    <rect y="0" width="18" height="1.4" fill="#c8333a"/>
    <rect y="2.8" width="18" height="1.4" fill="#c8333a"/>
    <rect y="5.6" width="18" height="1.4" fill="#c8333a"/>
    <rect y="8.4" width="18" height="1.4" fill="#c8333a"/>
    <rect y="11.2" width="18" height="1.4" fill="#c8333a"/>
    <rect y="14" width="18" height="1.4" fill="#c8333a"/>
    <rect y="16.6" width="18" height="1.4" fill="#c8333a"/>
    <rect width="8.4" height="7.9" fill="#23408e"/>
    <circle cx="1.4" cy="1.3" r=".22" fill="#fff"/>
    <circle cx="2.8" cy="1.3" r=".22" fill="#fff"/>
    <circle cx="4.2" cy="1.3" r=".22" fill="#fff"/>
    <circle cx="5.6" cy="1.3" r=".22" fill="#fff"/>
    <circle cx="7" cy="1.3" r=".22" fill="#fff"/>
    <circle cx="2.1" cy="2.4" r=".22" fill="#fff"/>
    <circle cx="3.5" cy="2.4" r=".22" fill="#fff"/>
    <circle cx="4.9" cy="2.4" r=".22" fill="#fff"/>
    <circle cx="6.3" cy="2.4" r=".22" fill="#fff"/>
    <circle cx="1.4" cy="3.5" r=".22" fill="#fff"/>
    <circle cx="2.8" cy="3.5" r=".22" fill="#fff"/>
    <circle cx="4.2" cy="3.5" r=".22" fill="#fff"/>
    <circle cx="5.6" cy="3.5" r=".22" fill="#fff"/>
    <circle cx="7" cy="3.5" r=".22" fill="#fff"/>
    <circle cx="2.1" cy="4.6" r=".22" fill="#fff"/>
    <circle cx="3.5" cy="4.6" r=".22" fill="#fff"/>
    <circle cx="4.9" cy="4.6" r=".22" fill="#fff"/>
    <circle cx="6.3" cy="4.6" r=".22" fill="#fff"/>
    <circle cx="1.4" cy="5.7" r=".22" fill="#fff"/>
    <circle cx="2.8" cy="5.7" r=".22" fill="#fff"/>
    <circle cx="4.2" cy="5.7" r=".22" fill="#fff"/>
    <circle cx="5.6" cy="5.7" r=".22" fill="#fff"/>
    <circle cx="7" cy="5.7" r=".22" fill="#fff"/>
  </g>
</svg>
